<svg width="16" height="16" viewBox="0 0 16 16" fill="none" xmlns="http://www.w3.org/2000/svg">
  <path d="M2.5636 4.0248C2.35225 4.0969 2.16204 4.26996 2.05636 4.48628C2.00705 4.58964 2 4.64011 2 4.85884C2 5.08958 2.0047 5.12323 2.06575 5.24341C2.12211 5.35157 2.63405 5.88757 4.80157 8.10849C7.0184 10.3799 7.49511 10.8558 7.61252 10.9207C7.74638 10.9952 7.76517 11 8 11C8.23483 11 8.25362 10.9952 8.38748 10.9207C8.50724 10.8558 8.97926 10.3823 11.2078 8.09647C13.3331 5.91882 13.8967 5.32754 13.9436 5.2314C13.993 5.12804 14 5.07757 14 4.85884C14 4.6281 13.993 4.59445 13.9319 4.46946C13.8497 4.30361 13.7135 4.1642 13.5421 4.07287C13.4247 4.01278 13.3894 4.00557 13.1781 4.00557C12.7671 4.00557 13.002 3.79646 10.3436 6.51491L8 8.90888L5.65871 6.51491C3.02622 3.8277 3.23523 4.01278 2.85714 4.00076C2.73973 3.99836 2.61996 4.00797 2.5636 4.0248Z" fill="#4A5056"/>
</svg>
